<svg width="16" height="16" viewBox="0 0 16 16" fill="none" xmlns="http://www.w3.org/2000/svg">
<path d="M8 0.25C3.71875 0.25 0.25 3.75 0.25 8C0.25 12.2812 3.71875 15.75 8 15.75C12.25 15.75 15.75 12.2812 15.75 8C15.75 3.75 12.25 0.25 8 0.25ZM8 1.75C11.4375 1.75 14.25 4.5625 14.25 8C14.25 11.4688 11.4375 14.25 8 14.25C4.53125 14.25 1.75 11.4688 1.75 8C1.75 4.5625 4.53125 1.75 8 1.75ZM12.375 5.84375L11.6562 5.125C11.5312 4.96875 11.2812 4.96875 11.125 5.125L6.71875 9.5L4.84375 7.625C4.6875 7.46875 4.46875 7.46875 4.3125 7.625L3.59375 8.3125C3.46875 8.46875 3.46875 8.71875 3.59375 8.84375L6.4375 11.7188C6.59375 11.875 6.8125 11.875 6.96875 11.7188L12.375 6.375C12.5 6.21875 12.5 5.96875 12.375 5.84375Z" fill="#158E9E"/>
</svg>
