<?xml version="1.0" encoding="utf-8"?>
<!-- Generator: Adobe Illustrator 16.0.4, SVG Export Plug-In . SVG Version: 6.00 Build 0)  -->
<!DOCTYPE svg PUBLIC "-//W3C//DTD SVG 1.1//EN" "http://www.w3.org/Graphics/SVG/1.1/DTD/svg11.dtd">
<svg version="1.1" id="Layer_1" xmlns="http://www.w3.org/2000/svg" xmlns:xlink="http://www.w3.org/1999/xlink" x="0px" y="0px"
	 width="449.25px" height="337px" viewBox="0 30.35 449.25 337" enable-background="new 0 30.35 449.25 337" xml:space="preserve">
<path id="Bounties" fill="#FFFFFF" d="M87.379,315.669c1.948,0,3.542-0.266,4.871-0.709c1.239-0.442,2.302-1.062,3.011-1.86
	c0.708-0.797,1.329-1.682,1.594-2.744c0.266-1.062,0.443-2.036,0.443-3.188s-0.177-2.302-0.532-3.188
	c-0.354-0.974-0.886-1.771-1.683-2.392c-0.796-0.709-1.771-1.151-3.099-1.505c-1.24-0.354-2.834-0.53-4.693-0.53h-10.36v16.202
	h10.448V315.669L87.379,315.669z M76.931,275.202v15.938h8.058c1.682,0,3.188-0.178,4.604-0.442
	c1.328-0.266,2.479-0.708,3.365-1.328s1.594-1.417,2.037-2.478c0.442-1.063,0.708-2.215,0.708-3.721c0-1.504-0.177-2.744-0.62-3.719
	c-0.443-0.974-0.974-1.859-1.771-2.479c-0.797-0.62-1.86-1.062-3.1-1.328s-2.745-0.443-4.428-0.443L76.931,275.202L76.931,275.202z
	 M85.697,265.992c3.984,0,7.35,0.355,10.183,1.152c2.834,0.708,5.136,1.771,6.907,3.188c1.771,1.328,3.099,3.01,3.896,4.959
	c0.797,1.947,1.24,4.161,1.24,6.553c0,1.328-0.177,2.656-0.62,3.896c-0.354,1.239-0.974,2.391-1.859,3.541
	c-0.797,1.062-1.86,2.125-3.188,3.01c-1.328,0.887-2.834,1.684-4.605,2.302c3.985,0.975,6.996,2.479,8.944,4.605
	c1.948,2.125,2.922,4.958,2.922,8.323c0,2.479-0.443,4.783-1.417,6.995c-0.974,2.127-2.392,3.984-4.25,5.58
	c-1.86,1.594-4.162,2.833-6.818,3.718c-2.656,0.886-5.844,1.328-9.298,1.328H64.8v-59.061h20.897V265.992L85.697,265.992z
	 M136.169,282.375c3.188,0,6.021,0.531,8.59,1.505c2.568,0.974,4.781,2.479,6.641,4.339c1.859,1.859,3.276,4.162,4.25,6.818
	s1.506,5.667,1.506,9.032c0,3.366-0.531,6.375-1.506,9.032c-0.974,2.656-2.391,4.958-4.25,6.817c-1.86,1.861-4.074,3.276-6.641,4.34
	c-2.568,0.975-5.402,1.506-8.59,1.506s-6.021-0.531-8.677-1.506c-2.568-0.974-4.782-2.479-6.642-4.34
	c-1.859-1.859-3.276-4.16-4.339-6.817s-1.505-5.666-1.505-9.032c0-3.365,0.531-6.376,1.505-9.032
	c1.062-2.656,2.479-4.958,4.339-6.818c1.86-1.859,4.073-3.275,6.642-4.339C130.06,282.816,132.982,282.375,136.169,282.375z
	 M136.169,317.263c3.188,0,5.579-1.062,7.173-3.275c1.505-2.214,2.302-5.49,2.302-9.918c0-4.339-0.797-7.615-2.302-9.829
	c-1.506-2.213-3.896-3.275-7.173-3.275c-3.276,0-5.667,1.062-7.261,3.275c-1.505,2.214-2.302,5.49-2.302,9.829
	c0,4.34,0.797,7.704,2.302,9.918C130.502,316.111,132.894,317.263,136.169,317.263z M201.165,283.083v41.973h-6.906
	c-1.417,0-2.392-0.62-2.745-1.949l-0.708-2.922c-0.887,0.797-1.683,1.595-2.568,2.214c-0.885,0.708-1.859,1.24-2.833,1.771
	c-0.974,0.531-2.125,0.885-3.276,1.151c-1.151,0.265-2.479,0.443-3.808,0.443c-2.302,0-4.338-0.354-6.11-1.152
	c-1.771-0.797-3.276-1.859-4.427-3.275c-1.151-1.418-2.125-3.101-2.745-5.049c-0.62-1.947-0.974-4.072-0.974-6.462v-26.654h11.246
	v26.654c0,2.301,0.532,4.161,1.594,5.401c1.062,1.327,2.656,1.948,4.781,1.948c1.595,0,3.1-0.354,4.428-1.063
	c1.417-0.708,2.745-1.594,3.985-2.833v-30.195L201.165,283.083L201.165,283.083z M220.822,287.953
	c0.886-0.797,1.683-1.594,2.656-2.213c0.975-0.621,1.861-1.24,2.922-1.771c1.062-0.53,2.126-0.886,3.276-1.151
	c1.151-0.266,2.479-0.442,3.808-0.442c2.302,0,4.339,0.354,6.11,1.15c1.771,0.798,3.276,1.861,4.427,3.276
	c1.24,1.417,2.126,3.1,2.745,5.048c0.62,1.948,0.887,4.074,0.887,6.464v26.741h-11.247v-26.653c0-2.302-0.53-4.161-1.594-5.401
	c-1.062-1.328-2.656-1.947-4.782-1.947c-1.594,0-3.1,0.354-4.428,0.974c-1.417,0.708-2.745,1.594-3.984,2.833v30.195h-11.246
	v-41.973h6.906c1.417,0,2.391,0.621,2.834,1.948L220.822,287.953z M300.34,325.056h-11.159v-33.915h-18.594v21.872
	c0,1.15,0.265,2.125,0.796,2.743c0.531,0.71,1.328,1.063,2.391,1.063c0.531,0,0.974-0.089,1.417-0.178
	c0.354-0.089,0.709-0.266,0.975-0.442c0.265-0.179,0.531-0.266,0.796-0.444c0.265-0.087,0.443-0.177,0.708-0.177
	c0.354,0,0.621,0.089,0.797,0.266c0.178,0.177,0.443,0.442,0.621,0.797l3.365,5.401c-1.505,1.24-3.275,2.125-5.224,2.744
	c-1.948,0.62-3.984,0.975-6.11,0.975c-1.86,0-3.542-0.266-5.048-0.796c-1.505-0.532-2.745-1.329-3.719-2.392
	c-0.975-1.062-1.771-2.302-2.302-3.719c-0.531-1.418-0.797-3.101-0.797-4.959v-22.669h-3.985c-0.62,0-1.061-0.177-1.504-0.531
	c-0.443-0.354-0.62-0.974-0.62-1.682v-4.428l6.73-1.239l2.302-10.893c0.266-1.239,1.151-1.86,2.479-1.86h5.845v12.752h29.84V325.056
	L300.34,325.056z M302.109,271.041c0,0.887-0.178,1.771-0.53,2.656c-0.354,0.797-0.886,1.505-1.506,2.125
	c-0.62,0.621-1.417,1.062-2.214,1.506c-0.796,0.443-1.771,0.53-2.745,0.53c-0.885,0-1.77-0.177-2.657-0.53
	c-0.885-0.354-1.594-0.887-2.213-1.506c-0.62-0.62-1.151-1.328-1.505-2.125c-0.354-0.797-0.531-1.684-0.531-2.656
	c0-0.975,0.177-1.86,0.531-2.657c0.354-0.796,0.886-1.594,1.505-2.214c0.621-0.619,1.328-1.15,2.213-1.505
	c0.887-0.354,1.683-0.53,2.657-0.53s1.86,0.177,2.745,0.53c0.887,0.354,1.594,0.886,2.214,1.505c0.62,0.621,1.151,1.328,1.506,2.214
	C301.933,269.181,302.109,270.066,302.109,271.041z M336.645,299.11c0-1.152-0.178-2.302-0.443-3.366
	c-0.354-1.061-0.796-2.035-1.506-2.834c-0.709-0.797-1.505-1.416-2.567-1.947c-1.063-0.443-2.303-0.709-3.72-0.709
	c-2.656,0-4.781,0.797-6.287,2.301c-1.506,1.506-2.479,3.72-3.01,6.553h17.533V299.11L336.645,299.11z M318.934,305.752
	c0.354,3.896,1.506,6.818,3.365,8.678c1.86,1.858,4.339,2.745,7.35,2.745c1.506,0,2.922-0.179,3.984-0.532
	c1.152-0.354,2.125-0.797,3.011-1.239c0.886-0.443,1.595-0.886,2.302-1.24c0.708-0.354,1.417-0.531,2.036-0.531
	c0.886,0,1.505,0.354,2.036,0.975l3.275,4.074c-1.15,1.417-2.479,2.567-3.984,3.452c-1.504,0.887-2.922,1.595-4.515,2.126
	c-1.505,0.531-3.1,0.886-4.692,1.062c-1.596,0.178-3.101,0.265-4.605,0.265c-2.922,0-5.666-0.442-8.236-1.416
	c-2.567-0.975-4.781-2.391-6.641-4.251c-1.859-1.859-3.365-4.249-4.427-6.995c-1.062-2.834-1.595-6.021-1.595-9.74
	c0-2.835,0.443-5.578,1.418-8.058c0.974-2.568,2.302-4.693,4.074-6.642c1.77-1.859,3.896-3.365,6.463-4.428
	c2.568-1.062,5.401-1.682,8.589-1.682c2.656,0,5.136,0.442,7.438,1.24c2.301,0.796,4.248,2.125,5.844,3.719
	c1.594,1.593,2.922,3.63,3.809,6.021c0.886,2.391,1.327,5.048,1.327,8.146c0,0.886,0,1.506-0.089,2.035
	c-0.088,0.532-0.177,0.975-0.441,1.329c-0.178,0.353-0.443,0.531-0.797,0.708c-0.354,0.088-0.709,0.177-1.24,0.177L318.934,305.752
	L318.934,305.752z M379.768,291.672c-0.266,0.443-0.62,0.797-0.886,0.975c-0.266,0.177-0.709,0.266-1.24,0.266
	c-0.53,0-1.062-0.178-1.683-0.443c-0.53-0.266-1.238-0.531-1.948-0.887c-0.708-0.354-1.505-0.619-2.391-0.885
	s-1.948-0.443-3.188-0.443c-1.859,0-3.188,0.354-4.249,1.151c-0.974,0.708-1.505,1.771-1.505,2.923c0,0.885,0.266,1.505,0.885,2.125
	c0.531,0.53,1.328,1.062,2.303,1.505s2.035,0.797,3.188,1.152c1.151,0.353,2.391,0.796,3.719,1.238
	c1.239,0.444,2.479,0.975,3.719,1.506c1.151,0.53,2.302,1.239,3.188,2.126c0.975,0.886,1.683,1.859,2.303,3.1
	c0.53,1.239,0.885,2.656,0.885,4.339c0,2.036-0.353,3.896-1.151,5.667c-0.708,1.683-1.859,3.188-3.275,4.427
	c-1.417,1.24-3.188,2.214-5.401,2.923c-2.125,0.708-4.605,1.062-7.438,1.062c-1.417,0-2.834-0.089-4.25-0.354
	c-1.417-0.266-2.744-0.619-4.074-1.062c-1.239-0.442-2.479-1.062-3.541-1.683c-1.152-0.619-2.036-1.327-2.923-2.035l2.568-4.162
	c0.265-0.531,0.708-0.887,1.151-1.151c0.443-0.267,1.062-0.443,1.771-0.443c0.709,0,1.328,0.177,1.86,0.531
	c0.531,0.354,1.238,0.708,1.947,1.062c0.709,0.353,1.506,0.796,2.479,1.062c0.975,0.354,2.126,0.531,3.631,0.531
	c1.062,0,2.036-0.089,2.835-0.354c0.797-0.265,1.416-0.62,1.947-0.975c0.531-0.442,0.887-0.886,1.062-1.417
	c0.266-0.53,0.354-1.062,0.354-1.683c0-0.886-0.266-1.683-0.886-2.301c-0.62-0.621-1.328-1.062-2.302-1.506
	c-0.975-0.442-2.035-0.797-3.275-1.152c-1.24-0.353-2.48-0.708-3.72-1.15c-1.239-0.443-2.479-0.975-3.719-1.506
	c-1.239-0.619-2.302-1.326-3.188-2.301c-0.973-0.887-1.682-2.037-2.301-3.365c-0.62-1.328-0.886-2.923-0.886-4.871
	c0-1.77,0.353-3.365,0.974-4.957c0.709-1.595,1.682-2.922,3.1-4.162c1.328-1.152,3.01-2.127,5.048-2.834
	c2.036-0.709,4.339-1.062,6.995-1.062c3.011,0,5.668,0.53,8.146,1.506c2.479,0.973,4.428,2.213,6.022,3.807L379.768,291.672z"/>
<path id="Network" fill="#FE9E3B" d="M66.924,336.124c0.177,0,0.354,0,0.531,0c0.178,0,0.266,0.088,0.354,0.088
	c0.088,0.087,0.177,0.087,0.354,0.178c0.089,0.088,0.177,0.265,0.354,0.354l12.75,16.293c-0.088-0.354-0.088-0.797-0.088-1.151
	c0-0.355,0-0.709,0-1.063v-14.786h3.984v24.439h-2.302c-0.354,0-0.62-0.088-0.885-0.179c-0.266-0.087-0.443-0.353-0.709-0.619
	l-12.75-16.205c0,0.354,0.088,0.709,0.088,1.063c0,0.353,0,0.708,0,0.974v14.965h-3.985v-24.351H66.924z M130.148,336.124v3.63
	h-10.803v6.73h8.501v3.454h-8.501v6.905h10.803v3.632H114.83v-24.352H130.148L130.148,336.124z M176.017,336.124v3.719h-7.349
	v20.632h-4.516v-20.632h-7.349v-3.719H176.017z M201.431,336.124h3.808c0.353,0,0.708,0.088,0.974,0.266
	c0.266,0.177,0.442,0.442,0.532,0.708l4.162,14.522c0.087,0.353,0.177,0.708,0.265,1.15c0.088,0.443,0.178,0.886,0.266,1.328
	c0.088-0.442,0.178-0.886,0.265-1.328c0.089-0.442,0.266-0.797,0.354-1.15l4.781-14.522c0.088-0.266,0.266-0.531,0.531-0.708
	c0.266-0.178,0.621-0.354,0.974-0.354h1.328c0.353,0,0.708,0.088,0.975,0.265c0.265,0.179,0.442,0.444,0.531,0.709l4.782,14.521
	c0.265,0.708,0.442,1.505,0.62,2.391c0.088-0.442,0.178-0.886,0.266-1.238c0.088-0.354,0.177-0.797,0.265-1.152l4.162-14.521
	c0.089-0.265,0.266-0.53,0.531-0.709c0.265-0.177,0.621-0.265,0.974-0.265h3.542l-7.527,24.351h-4.074l-5.312-16.646
	c-0.089-0.178-0.178-0.442-0.178-0.709c-0.088-0.266-0.177-0.531-0.177-0.797c-0.088,0.266-0.178,0.531-0.178,0.797
	c0,0.267-0.177,0.443-0.177,0.709l-5.402,16.646h-4.339L201.431,336.124z M287.057,348.344c0,1.771-0.265,3.453-0.885,4.958
	c-0.62,1.506-1.417,2.834-2.479,3.985c-1.062,1.15-2.391,1.948-3.896,2.567c-1.505,0.621-3.187,0.974-5.047,0.974
	c-1.86,0-3.542-0.353-5.048-0.974c-1.505-0.619-2.833-1.506-3.896-2.567c-1.062-1.152-1.948-2.393-2.479-3.985
	c-0.62-1.505-0.886-3.188-0.886-4.958s0.266-3.453,0.886-4.958c0.621-1.505,1.417-2.835,2.479-3.984
	c1.063-1.151,2.391-1.948,3.896-2.568c1.505-0.62,3.188-0.975,5.048-0.975c1.86,0,3.542,0.354,5.047,0.975
	c1.506,0.62,2.834,1.505,3.896,2.568c1.063,1.062,1.948,2.391,2.479,3.896C286.702,344.891,287.057,346.484,287.057,348.344z
	 M282.364,348.344c0-1.327-0.178-2.568-0.532-3.631c-0.353-1.062-0.886-1.948-1.504-2.656c-0.621-0.709-1.505-1.329-2.391-1.683
	c-0.975-0.354-2.037-0.62-3.188-0.62c-1.152,0-2.303,0.178-3.188,0.62c-0.974,0.353-1.771,0.974-2.391,1.683
	c-0.709,0.708-1.152,1.683-1.505,2.656c-0.354,1.062-0.531,2.214-0.531,3.631c0,1.416,0.177,2.568,0.531,3.63
	c0.354,1.062,0.886,1.948,1.505,2.657c0.708,0.709,1.505,1.328,2.391,1.683c0.975,0.354,2.036,0.62,3.188,0.62
	c1.151,0,2.213-0.177,3.188-0.62c0.973-0.354,1.77-0.974,2.391-1.683c0.62-0.709,1.151-1.594,1.504-2.657
	C282.187,350.822,282.364,349.672,282.364,348.344z M320.086,351v9.476h-4.516v-24.352h7.438c1.683,0,3.1,0.177,4.25,0.53
	c1.15,0.354,2.125,0.798,2.922,1.418s1.328,1.328,1.683,2.213c0.354,0.887,0.531,1.771,0.531,2.835c0,0.796-0.089,1.594-0.354,2.301
	c-0.265,0.708-0.619,1.417-1.061,1.948c-0.443,0.531-0.975,1.152-1.684,1.595c-0.708,0.443-1.418,0.796-2.302,1.062
	c0.531,0.354,1.063,0.797,1.506,1.419l6.11,8.942h-4.074c-0.354,0-0.709-0.088-0.975-0.266c-0.266-0.177-0.531-0.353-0.709-0.708
	l-5.136-7.792c-0.177-0.267-0.442-0.531-0.62-0.621c-0.266-0.087-0.531-0.177-0.974-0.177h-2.036V351L320.086,351z M320.086,347.724
	h2.834c0.886,0,1.594-0.089,2.214-0.354c0.62-0.177,1.151-0.531,1.594-0.886s0.708-0.797,0.887-1.328
	c0.177-0.531,0.265-1.062,0.265-1.683c0-1.239-0.443-2.213-1.239-2.833c-0.796-0.621-2.036-0.974-3.718-0.974h-2.924v8.058H320.086
	L320.086,347.724z M366.928,346.307h1.061c0.443,0,0.797-0.088,1.063-0.178c0.266-0.088,0.531-0.266,0.708-0.532l6.73-8.5
	c0.266-0.353,0.531-0.62,0.886-0.708c0.266-0.178,0.709-0.178,1.151-0.178h3.896l-8.234,10.095c-0.267,0.354-0.532,0.62-0.709,0.796
	c-0.266,0.179-0.531,0.354-0.797,0.531c0.354,0.177,0.709,0.354,0.974,0.531c0.266,0.177,0.62,0.531,0.886,0.974l8.412,11.423
	h-3.984c-0.531,0-0.975-0.087-1.239-0.266c-0.266-0.177-0.443-0.354-0.708-0.708l-6.906-8.943c-0.266-0.266-0.443-0.531-0.797-0.621
	c-0.266-0.087-0.709-0.177-1.152-0.177h-1.418v10.626h-4.515v-24.348h4.515v10.184L366.928,346.307L366.928,346.307z"/>
<path id="The" fill="#FE9E3B" d="M207.717,249.08v2.568h-4.959v14.08h-3.1v-14.08h-5.048v-2.568H207.717z M227.641,265.728h-3.099
	v-7.261h-7.792v7.261h-3.1V249.08h3.1v7.173h7.792v-7.173h3.099V265.728z M245.262,249.08v2.479h-7.35v4.604h5.844v2.391h-5.844
	v4.693h7.35v2.479h-10.537V249.08H245.262L245.262,249.08z"/>
<radialGradient id="Oval_1_" cx="38.7002" cy="391.3516" r="0.2925" gradientTransform="matrix(750.2699 0 0 -750.2696 -28815.4727 293738.3438)" gradientUnits="userSpaceOnUse">
	<stop  offset="0" style="stop-color:#2C00FF;stop-opacity:0.7"/>
	<stop  offset="0.3886" style="stop-color:#2C00FF;stop-opacity:0"/>
</radialGradient>
<ellipse id="Oval" opacity="0.6" fill="url(#Oval_1_)" enable-background="new    " cx="219.988" cy="119.002" rx="219.158" ry="219.335"/>
<linearGradient id="Shape_25_" gradientUnits="userSpaceOnUse" x1="37.418" y1="386.0234" x2="38.003" y2="386.0234" gradientTransform="matrix(57.6764 0 0 -54.0788 -1923.5295 21077.5312)">
	<stop  offset="0" style="stop-color:#2D0874"/>
	<stop  offset="0.3667" style="stop-color:#2D08B5"/>
	<stop  offset="0.9662" style="stop-color:#2D64B5"/>
</linearGradient>
<path id="Shape" fill="url(#Shape_25_)" d="M257.356,216.494c1.86,1.328,5.933,1.152,8.146,1.062l2.568-0.442
	c0.266,0,0.266-0.354,0.088-0.354c-3.984-1.77-19.834-10.537-23.199-16.559c-0.709-1.328,2.036-10.359,2.036-10.359l-12.398-3.809
	c0,0,4.516,12.662,6.376,15.23C243.719,205.16,252.397,213.041,257.356,216.494z"/>
<linearGradient id="Shape_26_" gradientUnits="userSpaceOnUse" x1="37.8037" y1="387.6055" x2="41.1991" y2="388.9083" gradientTransform="matrix(77.147 0 0 -104.0395 -2852.8267 40456.5625)">
	<stop  offset="0.3051" style="stop-color:#2D0874"/>
	<stop  offset="0.8079" style="stop-color:#2D08B5"/>
	<stop  offset="0.9662" style="stop-color:#2D64B5"/>
</linearGradient>
<path id="Shape_1_" fill="url(#Shape_26_)" d="M167.656,79.863c-1.417-1.506-5.933-3.099-8.058-2.834
	c-0.088-1.771-0.442-4.958-0.974-6.287c-1.151-3.542-5.933-11.599-8.058-14.965c-0.089-0.266-0.443,0-0.354,0.266l7.438,21.341
	c-2.922,0.62-6.11,1.859-9.12,5.756c0.088-0.088,0.266-0.266,0.266-0.354c-0.443,0.442-0.708,0.709-0.708,0.709
	s-2.213-3.543-3.276-4.251c-3.453-2.126-13.902-3.542-17.798-3.985c-0.266,0-0.354,0.354-0.088,0.354l20.366,8.854
	c0,0-0.089,0.354-0.266,0.797c0.089-0.266,0.266-0.354,0.354-0.619c0.266-0.354,0.443-0.709,0.708-1.062
	c-0.266,0.354-0.443,0.708-0.708,1.062c-3.985,6.375-10.98,27.008-4.604,31.08c8.501,5.314,29.044-21.251,29.044-21.251
	S170.312,82.697,167.656,79.863z"/>
<linearGradient id="Shape_27_" gradientUnits="userSpaceOnUse" x1="38.1045" y1="389.6719" x2="38.6895" y2="389.6719" gradientTransform="matrix(99.2838 0 0 -148.7227 -3595.7744 58142.4531)">
	<stop  offset="0.3051" style="stop-color:#2D0874"/>
	<stop  offset="0.5442" style="stop-color:#2D08B5"/>
	<stop  offset="0.9662" style="stop-color:#2D64B5"/>
</linearGradient>
<path id="Shape_2_" fill="url(#Shape_27_)" d="M245.313,232.345c-2.922-2.036-18.595-13.106-21.251-19.216
	c-1.505-3.631,0.621-10.184,0-15.939c-0.088-1.859-3.276-12.041-3.276-12.041s-8.411-22.227-12.663-28.779
	c-5.931-8.943-11.776-11.424-17.532-9.918c-6.021,1.683-1.771,9.298-1.771,9.298s16.825,21.341,20.632,29.487
	c2.567,5.666,3.453,18.684,6.287,24.352c2.568,5.224,12.751,15.319,18.152,20.455c2.125,2.036,4.959,3.1,7.881,2.834l3.275-0.265
	C245.313,232.699,245.491,232.434,245.313,232.345z"/>
<linearGradient id="Shape_28_" gradientUnits="userSpaceOnUse" x1="38.7847" y1="388.457" x2="38.7847" y2="387.475" gradientTransform="matrix(44.4734 0 0 -95.6681 -1559.8938 37237.8125)">
	<stop  offset="0" style="stop-color:#2D0874"/>
	<stop  offset="0.6643" style="stop-color:#2D08B5"/>
	<stop  offset="0.9662" style="stop-color:#2D64B5"/>
</linearGradient>
<path id="Shape_3_" fill="url(#Shape_28_)" d="M168.099,96.156c-5.579-2.213-7.792-5.224-8.766,7.35
	c-0.443,5.756-5.667,21.518-4.162,27.186c0.354,1.15,2.125,4.338,2.214,5.578c0.089,3.188-3.896,10.892-5.401,13.548
	c-0.089,0.266,0.088,0.354,0.354,0.266c2.037-1.683,6.819-5.933,8.146-8.146c0.089-0.09,0.266-0.354,0.266-0.621
	c0.708-1.151,1.771-3.453,2.037-6.729c0.266-2.214-0.089-5.312,1.859-8.058c0.974-1.15,13.371,2.125,13.371,2.125
	s-13.459-5.047-13.105-6.996c0.797-3.807,1.771-7.172,2.745-9.209C167.656,112.627,175.537,99.256,168.099,96.156z"/>
<linearGradient id="Shape_29_" gradientUnits="userSpaceOnUse" x1="37.8198" y1="383.5342" x2="37.8198" y2="384.6852" gradientTransform="matrix(102.1874 0 0 -53.5578 -3564.0522 20670.7051)">
	<stop  offset="0.0547" style="stop-color:#91FFFF"/>
	<stop  offset="0.506" style="stop-color:#6D7FFF"/>
	<stop  offset="0.7303" style="stop-color:#80C3FF"/>
</linearGradient>
<path id="Shape_4_" fill="url(#Shape_29_)" d="M315.975,68.441c-1.682-0.266-3.452-0.443-5.312-0.708
	c-5.047,9.828-12.131,19.038-17.709,22.402c-6.11,3.808-14.168,6.729-22.138,8.854c9.121-1.505,16.293-3.099,20.632-4.25
	c11.068-3.1,39.759-8.767,39.05-20.277C330.32,70.566,319.872,69.149,315.975,68.441z"/>
<linearGradient id="Shape_30_" gradientUnits="userSpaceOnUse" x1="37.7529" y1="365.2842" x2="38.9065" y2="365.2842" gradientTransform="matrix(80.9651 0 0 -14.5516 -2833.1606 5416.6846)">
	<stop  offset="0.0017" style="stop-color:#3C7ADE"/>
	<stop  offset="0.7921" style="stop-color:#91FFFF"/>
</linearGradient>
<path id="Shape_5_" fill="url(#Shape_30_)" d="M224.327,97.219l-0.266-0.266c-0.353,0.62-0.443,0.975-0.443,0.975l10.006,7.526
	c0,0,18.949-1.417,37.279-6.376C250.449,99.521,224.327,97.219,224.327,97.219z"/>
<linearGradient id="Shape_31_" gradientUnits="userSpaceOnUse" x1="37.7461" y1="381.752" x2="37.9086" y2="381.2632" gradientTransform="matrix(41.593 0 0 -38.6022 -1345.4709 14817.0801)">
	<stop  offset="0" style="stop-color:#6DE5FF"/>
	<stop  offset="0.0078" style="stop-color:#6CE2FE"/>
	<stop  offset="0.0791" style="stop-color:#62C7F3"/>
	<stop  offset="0.16" style="stop-color:#5AB1EA"/>
	<stop  offset="0.2556" style="stop-color:#54A0E3"/>
	<stop  offset="0.3738" style="stop-color:#4F95DE"/>
	<stop  offset="0.5396" style="stop-color:#4D8EDB"/>
	<stop  offset="1" style="stop-color:#4C8CDA"/>
</linearGradient>
<path id="Shape_6_" fill="url(#Shape_31_)" d="M212.905,88.541l10.98,10.184c1.859-3.542,8.5-15.585,13.371-22.58
	C228.046,79.863,212.905,88.541,212.905,88.541z"/>
<linearGradient id="Shape_32_" gradientUnits="userSpaceOnUse" x1="37.7676" y1="388.2939" x2="38.3523" y2="388.2939" gradientTransform="matrix(90.2669 0 0 -95.089 -3180.6372 37091.7031)">
	<stop  offset="0.3051" style="stop-color:#2D0874"/>
	<stop  offset="0.8079" style="stop-color:#2D08B5"/>
	<stop  offset="0.9662" style="stop-color:#2D64B5"/>
</linearGradient>
<path id="Shape_7_" fill="url(#Shape_32_)" d="M228.489,180.367c0,0,1.682,3.099,4.339,5.4c0.797,0.797,10.006,10.627,18.773,11.246
	c17.444,1.15,24.44-15.939,26.741-21.87c1.418-3.632,2.568-11.6,2.834-15.496c0.088-1.86-1.062-7.35-1.062-7.35l-8.235-3.188
	l-6.375-7.704l-7.881,17.268L228.489,180.367z"/>
<linearGradient id="Shape_33_" gradientUnits="userSpaceOnUse" x1="26.0986" y1="386.3818" x2="76.4536" y2="398.4256" gradientTransform="matrix(63.4511 0 0 -137.2864 -2267.3647 53615.0391)">
	<stop  offset="0.3051" style="stop-color:#2D0874"/>
	<stop  offset="0.5818" style="stop-color:#2D08B5"/>
	<stop  offset="0.9662" style="stop-color:#2D64B5"/>
</linearGradient>
<path id="Shape_8_" fill="url(#Shape_33_)" d="M163.849,122.544c0,0-5.933-2.392,10.183,11.6c8.589,7.438-2.391,13.106-2.834,19.038
	c-0.443,6.287,3.808,19.746,5.667,25.768c1.859,6.109,9.298,23.73,9.298,23.73c-0.088-1.504,0.089-2.479,0.443-2.922
	c0.354-0.442,0.708-0.621,1.151-0.621c0.975,0.089,2.126,1.062,2.834,2.037l0.62,0.797c0,0-0.088-0.354-0.443-0.975
	c-1.683-3.275-7.171-14.611-9.298-19.037c-0.266-0.444-0.354-0.975-0.443-1.506c-0.354-0.797-0.708-1.506-0.974-2.126
	c-1.505-3.808-0.62-13.725,1.683-17.267c2.834-4.34,7.35-5.402,7.35-5.402c2.126-1.506,6.996-2.922,8.501-5.225
	c0.266-0.354,2.391-4.25,2.391-4.604C201.127,137.598,163.849,122.544,163.849,122.544z"/>
<linearGradient id="Shape_34_" gradientUnits="userSpaceOnUse" x1="3.3843" y1="189.3848" x2="56.8899" y2="217.047" gradientTransform="matrix(0.8076 0 0 -1.6169 176.3982 519.7929)">
	<stop  offset="0.2791" style="stop-color:#1D1147"/>
	<stop  offset="0.7318" style="stop-color:#2D0874"/>
	<stop  offset="0.9965" style="stop-color:#5700BB"/>
</linearGradient>
<path id="Shape_9_" fill="url(#Shape_34_)" d="M190.59,200.998c0.266,0.62,0.442,0.975,0.442,0.975S190.856,201.618,190.59,200.998z
	"/>
<linearGradient id="Shape_35_" gradientUnits="userSpaceOnUse" x1="38.4658" y1="384.1582" x2="42.507" y2="384.1582" gradientTransform="matrix(20.7965 0 0 -50.1222 -639.048 19357.5723)">
	<stop  offset="0" style="stop-color:#0021C1"/>
	<stop  offset="1" style="stop-color:#783D96"/>
</linearGradient>
<path id="Shape_10_" fill="url(#Shape_35_)" d="M160.927,117.408c0,0,4.958-18.063,12.131-29.31
	C164.291,97.219,161.369,109.262,160.927,117.408z"/>
<linearGradient id="Shape_36_" gradientUnits="userSpaceOnUse" x1="23.5718" y1="329.2178" x2="33.0292" y2="329.2178" gradientTransform="matrix(8.8839 0 0 -6.0632 -48.5128 2107.0562)">
	<stop  offset="0" style="stop-color:#0021C1"/>
	<stop  offset="1" style="stop-color:#783D96"/>
</linearGradient>
<path id="Shape_11_" fill="url(#Shape_36_)" d="M244.871,112.715c0,0-2.125-1.416-5.224-3.541l4.516,3.188
	C244.605,112.627,244.871,112.715,244.871,112.715z"/>
<linearGradient id="Shape_37_" gradientUnits="userSpaceOnUse" x1="34.645" y1="297.1289" x2="39.0909" y2="297.1289" gradientTransform="matrix(12.3164 0 0 -4.2442 -253.3099 1340.8494)">
	<stop  offset="0" style="stop-color:#0021C1"/>
	<stop  offset="1" style="stop-color:#783D96"/>
</linearGradient>
<path id="Shape_12_" fill="url(#Shape_37_)" d="M202.279,80.041c-1.771-0.619-3.541-1.151-5.579-1.506
	c2.479,0.621,4.87,1.506,7.172,2.48"/>
<linearGradient id="Shape_38_" gradientUnits="userSpaceOnUse" x1="37.4502" y1="382.5439" x2="39.6111" y2="383.0769" gradientTransform="matrix(16.7584 0 0 -35.1663 -450.4932 13647.7578)">
	<stop  offset="0.2791" style="stop-color:#1D1147"/>
	<stop  offset="0.7318" style="stop-color:#2D0874"/>
	<stop  offset="0.9965" style="stop-color:#5700BB"/>
</linearGradient>
<path id="Shape_13_" fill="url(#Shape_38_)" d="M190.59,200.998c-1.505-3.188-6.996-14.256-9.829-20.543
	c0.088,0.619,0.354,1.061,0.443,1.506C183.33,186.299,188.996,197.723,190.59,200.998z"/>
<linearGradient id="Shape_39_" gradientUnits="userSpaceOnUse" x1="33.002" y1="323.0967" x2="37.0258" y2="323.0967" gradientTransform="matrix(13.124 0 0 -4.6485 -204.6563 1697.4666)">
	<stop  offset="0.3051" style="stop-color:#2D0874"/>
	<stop  offset="1" style="stop-color:#2D08B5"/>
</linearGradient>
<path id="Shape_14_" fill="url(#Shape_39_)" d="M250.892,196.925l-7.704-2.743C243.188,194.269,248.324,196.306,250.892,196.925z"/>
<linearGradient id="Shape_40_" gradientUnits="userSpaceOnUse" x1="38.0146" y1="388.6309" x2="38.5986" y2="388.6309" gradientTransform="matrix(124.6419 0 0 -109.5455 -4529.606 42721.8203)">
	<stop  offset="0" style="stop-color:#F498B4"/>
	<stop  offset="0.4502" style="stop-color:#F98060"/>
	<stop  offset="0.8846" style="stop-color:#FFA433"/>
</linearGradient>
<path id="Shape_15_" fill="url(#Shape_40_)" d="M261.872,124.67c-0.265-0.443-0.62-0.797-0.974-1.151
	c-2.923-2.745-14.256-6.376-14.256-6.376l-15.939,11.068l-9.651,13.37l-12.485,14.346c0,0,9.651,22.048,20.365,24.704
	c14.965,3.631,29.576-14.875,32.232-20.1c2.392-4.604,3.1-12.309,3.897-12.751c1.683-0.974,4.339,4.958,6.818,5.756
	c2.923,1.062,3.631-0.442,7.792,0.354C287.374,155.484,266.742,130.336,261.872,124.67z"/>
<linearGradient id="Shape_41_" gradientUnits="userSpaceOnUse" x1="38.2969" y1="386.4873" x2="38.9039" y2="386.4873" gradientTransform="matrix(74.1001 0 0 -72.5283 -2678.332 28129.4648)">
	<stop  offset="0" style="stop-color:#783D96"/>
	<stop  offset="1" style="stop-color:#3A2EAC"/>
</linearGradient>
<path id="Shape_16_" fill="url(#Shape_41_)" d="M160.661,119.355c0.354-5.756,1.328-11.599,3.099-17.089
	c1.771-5.578,4.25-11.068,8.058-15.673c1.859-2.392,4.162-4.339,6.73-6.021c2.568-1.506,5.401-2.745,8.412-3.188
	c6.021-1.062,12.042,0.442,17.089,3.275c-5.401-1.771-11.333-2.568-16.735-1.328c-2.744,0.62-5.224,1.771-7.526,3.276
	c-2.214,1.506-4.339,3.454-6.11,5.578c-1.771,2.125-3.276,4.517-4.604,6.996s-2.479,5.047-3.542,7.792
	C163.583,108.111,162.078,113.689,160.661,119.355z"/>
<linearGradient id="Shape_42_" gradientUnits="userSpaceOnUse" x1="37.9326" y1="388.0879" x2="38.5171" y2="388.0879" gradientTransform="matrix(90.1751 0 0 -96.0389 -3213.1006 37408.1953)">
	<stop  offset="0" style="stop-color:#A250A4"/>
	<stop  offset="1" style="stop-color:#FF801F"/>
</linearGradient>
<path id="Shape_17_" fill="url(#Shape_42_)" d="M260.012,122.279c1.505,2.922-9.651-9.475-25.944,5.224
	c-12.396,11.069-17.178,35.065-19.215,36.925c-2.214,2.037-4.693-4.692-6.641-8.146c-1.771-3.099-0.266-16.381,2.479-23.288
	c11.777-30.461,17.709-24.085,27.627-23.111C240.886,110.236,257.002,116.7,260.012,122.279z"/>
<linearGradient id="Shape_43_" gradientUnits="userSpaceOnUse" x1="39.3491" y1="318.6641" x2="39.9388" y2="318.6641" gradientTransform="matrix(10.0288 0 0 -5.4464 -242.7982 1820.0701)">
	<stop  offset="0" style="stop-color:#6DBDFF"/>
	<stop  offset="1" style="stop-color:#3C63FF"/>
</linearGradient>
<path id="Shape_18_" opacity="0.81" fill="url(#Shape_43_)" enable-background="new    " d="M155.259,82.963
	c0.974,0.089,3.188,1.417,2.125,2.125c-1.328,0.797-4.693,1.771-5.578,0C151.452,84.114,153.842,82.608,155.259,82.963z"/>
<linearGradient id="Shape_44_" gradientUnits="userSpaceOnUse" x1="14.6553" y1="-621.498" x2="68.5326" y2="-593.6439" gradientTransform="matrix(0.4038 0 0 -0.4043 146.6161 -167.6029)">
	<stop  offset="0.2791" style="stop-color:#1D1147"/>
	<stop  offset="0.7318" style="stop-color:#2D0874"/>
	<stop  offset="0.9965" style="stop-color:#5700BB"/>
</linearGradient>
<path id="Shape_19_" fill="url(#Shape_44_)" d="M164.469,77.562l-0.266-0.089c0,0.089,0.088,0.089,0.088,0.266L164.469,77.562z"/>
<linearGradient id="Shape_45_" gradientUnits="userSpaceOnUse" x1="37.627" y1="348.0713" x2="39.9856" y2="350.2247" gradientTransform="matrix(16.7584 0 0 -9.499 -504.9932 3400.5127)">
	<stop  offset="0.2791" style="stop-color:#1D159B"/>
	<stop  offset="0.5591" style="stop-color:#2D0874"/>
	<stop  offset="0.9965" style="stop-color:#5700BB"/>
</linearGradient>
<path id="Shape_20_" fill="url(#Shape_45_)" d="M158.624,77.65l0.089-0.354c-3.188,0.442-6.464,1.683-9.83,5.579
	c0.797-0.797,2.391-2.214,4.163-3.542C154.993,77.916,158.624,77.65,158.624,77.65z"/>
<linearGradient id="Shape_46_" gradientUnits="userSpaceOnUse" x1="38.3467" y1="387.1602" x2="38.9298" y2="387.1602" gradientTransform="matrix(66.404 0 0 -82.9338 -2388.2561 32206.373)">
	<stop  offset="0" style="stop-color:#A250A4"/>
	<stop  offset="0.5056" style="stop-color:#FF8B00"/>
</linearGradient>
<path id="Shape_21_" fill="url(#Shape_46_)" d="M196.523,78.447c-1.152-3.276-9.209-5.934-19.304-4.516
	c-3.542,0.442-8.057,2.391-10.979,5.312c-5.047,5.047-7.526,13.371-8.058,21.341c-0.62,10.183,4.162,21.34,4.162,21.34
	s-1.328-5.578-1.062-6.729c-0.088,0.709-0.088,1.062-0.088,1.062s0.088-0.797,0.354-2.125c0.443-2.126,1.063-7.882,1.683-10.715
	c1.505-6.464,6.287-13.725,13.725-19.392C191.653,71.363,198.737,84.733,196.523,78.447z"/>
<linearGradient id="Shape_47_" gradientUnits="userSpaceOnUse" x1="37.7808" y1="386.0391" x2="38.4668" y2="386.0391" gradientTransform="matrix(135.9897 0 0 -72.342 -4914.189 27980.9199)">
	<stop  offset="0.0236" style="stop-color:#4C8CDA"/>
	<stop  offset="0.7524" style="stop-color:#6DFFFF"/>
</linearGradient>
<path id="Shape_22_" fill="url(#Shape_47_)" d="M310.662,67.821c5.578-10.891,8.501-22.403,3.984-28.07
	c-4.692-5.933-11.954-9.652-26.565-4.162c-21.604,8.146-37.72,24.706-50.737,39.582c1.682-0.708,3.188-1.151,4.338-1.505
	C258.242,69.415,291.093,66.05,310.662,67.821z"/>
<linearGradient id="Shape_48_" gradientUnits="userSpaceOnUse" x1="37.9829" y1="384.5176" x2="38.6137" y2="384.5176" gradientTransform="matrix(150.6232 0 0 -54.469 -5499.0049 21027.4707)">
	<stop  offset="0.0035" style="stop-color:#0079B3"/>
	<stop  offset="1" style="stop-color:#3CACFF"/>
</linearGradient>
<path id="Shape_23_" fill="url(#Shape_48_)" d="M310.662,67.821c-19.569-1.771-52.509,1.505-68.891,5.756
	c-1.152,0.354-2.745,0.797-4.339,1.505c-4.871,6.73-11.423,18.418-13.372,21.872l-1.417,0.62c0,0,27.804,1.859,48.258,1.505
	c8.146-2.214,16.117-5.047,22.138-8.854C298.531,86.771,305.703,77.65,310.662,67.821z"/>
<linearGradient id="Shape_49_" gradientUnits="userSpaceOnUse" x1="38.377" y1="388.9248" x2="38.7363" y2="389.5313" gradientTransform="matrix(147.9523 0 0 -140.7286 -5506.3613 54888.8281)">
	<stop  offset="0.3051" style="stop-color:#2D0874"/>
	<stop  offset="0.8079" style="stop-color:#2D08B5"/>
	<stop  offset="0.9662" style="stop-color:#2D64B5"/>
</linearGradient>
<path id="Shape_24_" fill="url(#Shape_49_)" d="M158.801,109.793c0.266,6.465,2.214,11.954,3.896,14.256
	c3.099,4.605,11.334,8.236,21.075,12.752c14.522,6.641,26.033,22.934,26.033,22.934s-6.021-25.059,9.476-40.645
	c13.193-13.193,25.501-6.463,25.679-6.995c2.39-4.339-16.382-10.36-21.695-14.434c-5.579-4.25-13.194-13.813-20.986-17.71
	c-5.313-2.567-12.486-4.162-22.403,0.266C167.125,85.885,158.536,100.584,158.801,109.793z"/>
</svg>
